#!OML:ASF I:\golf\golf\golf 2\Subject 1\2002-09-07\Subject1.ASF
:FULLY-SPECIFIED
:DEGREES
267
root -6.10655 18.1018 -1.10523 -178.775 44.3862 -183.01
lowerback -8.05957 1.41427 6.77058
upperback 0.678092 2.25148 14.6331
thorax 4.88754 1.78169 12.5535
lowerneck -3.39307 -17.5116 -5.27111
upperneck 30.0846 -19.1647 -10.0159
head 9.61671 -9.50104 -4.14621
rclavicle -1.51076e-014 1.01778e-013
rhumerus 7.72716 13.7445 -101.483
rradius 19.1532
rwrist -33.7061
rhand -1.72019 -15.4887
rfingers 7.12502
rthumb 23.9417 -44.016
lclavicle -1.51076e-014 1.01778e-013
lhumerus 6.44 -33.9218 99.4611
lradius 17.8452
lwrist 37.8976
lhand -0.816209 66.6128
lfingers 7.12502
lthumb -155.192 84.9765
rfemur -1.63682 -3.72384 3.01325
rtibia 35.7035
rfoot 1.76965 -25.6929
rtoes 11.1618
lfemur -11.6773 -3.35718 -20.7601
ltibia 11.4079
lfoot -2.42541 -28.8576
ltoes 0.781318
268
root -6.08513 18.0844 -1.17105 -179.219 43.2127 -183.061
lowerback -8.03201 2.11152 6.9113
upperback 0.4886 3.30267 14.7413
thorax 4.48877 2.35387 12.6998
lowerneck -3.53356 -18.2565 -5.10152
upperneck 29.9591 -20.2805 -9.8459
head 9.56168 -9.96671 -4.19998
rclavicle 1.43125e-014 6.99722e-014
rhumerus 10.093 21.0864 -99.8416
rradius 19.8875
rwrist -30.944
rhand 0.239814 -14.6576
rfingers 7.12502
rthumb 25.8201 -42.9251
lclavicle 1.43125e-014 6.99722e-014
lhumerus 7.00776 -32.7431 98.4154
lradius 20.3514
lwrist 45.1079
lhand -2.59614 65.5971
lfingers 7.12502
lthumb -156.898 85.7678
rfemur -0.235931 -3.78692 2.82239
rtibia 35.1098
rfoot 2.65091 -25.5683
rtoes 10.0021
lfemur -11.47 -3.96098 -21.0661
ltibia 12.1587
lfoot -1.29439 -29.0392
ltoes 5.97039
269
root -6.07297 18.075 -1.23021 -179.163 41.9934 -182.654
lowerback -7.94287 2.7425 7.34033
upperback 0.176488 4.31062 14.9514
thorax 3.93591 2.93141 12.7675
lowerneck -3.5208 -18.8621 -4.82412
upperneck 29.6372 -21.2159 -9.75345
head 9.38974 -10.3519 -4.23945
rclavicle -3.65764e-014 3.49861e-013
rhumerus 12.9015 27.3523 -97.736
rradius 20.4658
rwrist -27.3344
rhand 2.67835 -13.0583
rfingers 7.12502
rthumb 28.1532 -40.9646
lclavicle -3.65764e-014 3.49861e-013
lhumerus 7.73262 -30.2089 97.8665
lradius 22.1179
lwrist 49.2525
lhand -4.68851 64.1519
lfingers 7.12502
lthumb -158.907 86.9753
rfemur 0.916471 -3.82768 3.08573
rtibia 34.5278
rfoot 2.73933 -25.6887
rtoes 10.8518
lfemur -11.5599 -4.60479 -20.9694
ltibia 12.9323
lfoot -0.357406 -29.2879
ltoes 10.1591
270
root -6.06484 18.0689 -1.29005 -179.022 40.688 -182.088
lowerback -7.59059 3.31274 7.93044
upperback -0.309946 5.32119 15.1451
thorax 3.06163 3.52421 12.6573
lowerneck -3.2812 -19.3993 -4.55931
upperneck 29.2626 -22.0624 -9.6181
head 9.16964 -10.6888 -4.22434
rclavicle -1.04163e-013 -1.39944e-013
rhumerus 15.8187 32.8876 -95.2523
rradius 21.9279
rwrist -24.7557
rhand 4.02616 -12.7851
rfingers 7.12502
rthumb 29.4407 -40.4722
lclavicle -1.04163e-013 -1.39944e-013
lhumerus 8.20528 -28.6235 97.1139
lradius 24.2578
lwrist 52.0754
lhand -6.83971 62.0982
lfingers 7.12502
lthumb -160.975 88.8123
rfemur 2.10479 -3.96164 3.51362
rtibia 33.9712
rfoot 2.75976 -25.8156
rtoes 12.0121
lfemur -11.6917 -5.25949 -20.7345
ltibia 13.7873
lfoot 0.0241497 -29.7687
ltoes 12.7919
271
root -6.05959 18.0608 -1.35465 -178.941 39.3408 -181.637
lowerback -7.0146 3.80557 8.51574
upperback -0.949709 6.29378 15.2198
thorax 1.92625 4.08851 12.341
lowerneck -2.99167 -19.856 -4.23437
upperneck 28.9478 -22.8027 -9.43873
head 8.96444 -10.963 -4.18968
rclavicle -8.74653e-015 -4.77083e-014
rhumerus 18.8127 37.994 -92.5367
rradius 23.8931
rwrist -24.1859
rhand 2.9229 -11.4016
rfingers 7.12502
rthumb 28.3869 -39.2692
lclavicle -8.74653e-015 -4.77083e-014
lhumerus 8.47897 -26.8768 96.3182
lradius 26.2426
lwrist 53.1863
lhand -6.63542 60.3381
lfingers 7.12502
lthumb -160.779 -90.5918
rfemur 3.2938 -4.11984 3.85954
rtibia 33.3958
rfoot 3.19863 -25.9381
rtoes 12.155
lfemur -11.8881 -5.88708 -20.6032
ltibia 14.7288
lfoot 0.077397 -30.4257
ltoes 14.4075
272
root -6.06136 18.058 -1.41986 -178.482 38.3349 -180.96
lowerback -6.60934 4.45767 9.48167
upperback -1.50532 7.4185 15.197
thorax 1.0268 4.71028 11.7242
lowerneck -2.94228 -20.2313 -3.79155
upperneck 28.5518 -23.5018 -9.06924
head 8.78454 -11.2045 -4.12807
rclavicle -8.5875e-014 7.31528e-014
rhumerus 22.1323 41.2498 -89.9975
rradius 25.5738
rwrist -21.4298
rhand 2.98375 -10.1749
rfingers 7.12502
rthumb 28.445 -38.0328
lclavicle -8.5875e-014 7.31528e-014
lhumerus 8.94302 -24.7886 95.6064
lradius 28.3167
lwrist 53.3602
lhand -7.25157 59.0559
lfingers 7.12502
lthumb -161.371 -91.8161
rfemur 4.02587 -4.0015 4.44542
rtibia 32.7838
rfoot 3.77429 -26.241
rtoes 12.3321
lfemur -12.3666 -6.41038 -20.2355
ltibia 15.6774
lfoot -0.157025 -30.8869
ltoes 15.0172
273
root -6.05586 18.0601 -1.48181 -178.118 37.7439 -180.18
lowerback -6.19055 5.26953 10.636
upperback -1.81144 8.68849 15.1053
thorax 0.443066 5.37381 10.9549
lowerneck -3.02763 -20.5613 -3.23593
upperneck 27.9766 -24.2217 -8.47184
head 8.58346 -11.4425 -4.01532
rclavicle 1.08139e-013 -1.30403e-013
rhumerus 25.6824 43.5214 -87.3906
rradius 27.1569
rwrist -16.8321
rhand 1.30641 -8.58765
rfingers 7.12502
rthumb 26.8411 -36.7025
lclavicle 1.08139e-013 -1.30403e-013
lhumerus 9.75335 -23.9174 94.4875
lradius 30.9796
lwrist 54.0731
lhand -11.5349 56.5856
lfingers 7.12502
lthumb -165.495 -93.9414
rfemur 4.74908 -3.51711 5.16247
rtibia 32.1622
rfoot 4.70439 -26.5106
rtoes 12.1315
lfemur -12.6001 -6.53518 -19.7599
ltibia 16.606
lfoot -0.493609 -31.2892
ltoes 15.8141
274
root -6.0495 18.0634 -1.54876 -177.782 37.0335 -179.388
lowerback -5.89728 5.97229 11.8447
upperback -2.07855 9.77309 14.9761
thorax 0.0516942 5.92745 10.1388
lowerneck -3.12559 -20.8023 -2.65389
upperneck 27.3448 -24.8339 -7.77832
head 8.38205 -11.626 -3.86996
rclavicle -8.5875e-014 1.30403e-013
rhumerus 28.6174 43.0779 -86.4343
rradius 28.5305
rwrist -15.0424
rhand 4.30991 -6.55545
rfingers 7.12502
rthumb 29.7115 -34.1946
lclavicle -8.5875e-014 1.30403e-013
lhumerus 10.8231 -23.4654 93.0287
lradius 33.6661
lwrist 54.8884
lhand -15.7709 53.1168
lfingers 7.12502
lthumb -169.579 -97.1615
rfemur 5.54873 -3.23676 5.88537
rtibia 31.5502
rfoot 5.66751 -26.7128
rtoes 12.1811
lfemur -12.7689 -6.64615 -19.2773
ltibia 17.5022
lfoot -0.76415 -31.7943
ltoes 16.4741
275
root -6.05341 18.0667 -1.6192 -177.054 35.9075 -178.582
lowerback -5.97326 6.49359 13.0138
upperback -2.55926 10.6218 14.8521
thorax -0.322418 6.36968 9.39588
lowerneck -3.2834 -20.9407 -2.26043
upperneck 26.8891 -25.2386 -7.14573
head 8.27799 -11.7251 -3.73539
rclavicle -4.6118e-014 -4.77083e-014
rhumerus 32.052 43.9887 -84.2749
rradius 30.1691
rwrist -13.0094
rhand 4.87928 -5.162
rfingers 7.12502
rthumb 30.2548 -32.7028
lclavicle -4.6118e-014 -4.77083e-014
lhumerus 11.85 -22.1071 91.8971
lradius 36.1568
lwrist 55.064
lhand -16.8868 49.5209
lfingers 7.12502
lthumb -170.655 -100.706
rfemur 6.00139 -3.35779 6.66636
rtibia 30.955
rfoot 5.98461 -27.2096
rtoes 13.7187
lfemur -13.4192 -7.08459 -18.7133
ltibia 18.3184
lfoot -0.786475 -32.3434
ltoes 16.9349
276
root -6.05393 18.0696 -1.68605 -176.253 34.633 -177.801
lowerback -6.45663 6.8523 13.7987
upperback -2.88257 11.203 14.9515
thorax -0.375045 6.71429 9.19978
lowerneck -3.48287 -20.9388 -1.99391
upperneck 26.1116 -25.4573 -6.53041
head 8.09271 -11.7826 -3.56763
rclavicle -1.90833e-014 -1.17681e-013
rhumerus 35.7875 45.0819 -81.6989
rradius 31.6637
rwrist -10.6126
rhand 3.87605 -3.83958
rfingers 7.12502
rthumb 29.2974 -31.5518
lclavicle -1.90833e-014 -1.17681e-013
lhumerus 13.1243 -20.0801 91.0648
lradius 38.4751
lwrist 54.6442
lhand -16.6816 46.6496
lfingers 7.12502
lthumb -170.457 -103.586
rfemur 6.33979 -3.49282 7.54029
rtibia 30.4204
rfoot 6.23661 -27.754
rtoes 14.4901
lfemur -14.1655 -7.44048 -18.1137
ltibia 19.0178
lfoot -0.672361 -33.041
ltoes 17.5634
277
root -6.05004 18.0695 -1.75571 -175.612 33.4076 -177.184
lowerback -6.48235 6.71241 12.0501
upperback -3.54555 12.0218 16.5795
thorax -1.94829 7.47117 11.9393
lowerneck -2.91954 -21.118 -3.22426
upperneck 25.3501 -25.4674 -7.06362
head 7.83672 -11.945 -3.48331
rclavicle 5.88403e-014 -2.16278e-013
rhumerus 37.7733 47.1685 -78.106
rradius 33.3453
rwrist -9.1981
rhand 3.02555 -2.12123
rfingers 7.12502
rthumb 28.485 -29.9724
lclavicle 5.88403e-014 -2.16278e-013
lhumerus 12.7555 -16.7173 93.2773
lradius 40.5221
lwrist 52.9005
lhand -16.6307 44.3259
lfingers 7.12502
lthumb -170.408 -105.912
rfemur 6.68379 -3.6068 8.28221
rtibia 29.9759
rfoot 7.01481 -28.1157
rtoes 13.9254
lfemur -14.7591 -7.76435 -17.6532
ltibia 19.577
lfoot -0.481871 -33.6213
ltoes 17.9828
278
root -6.04532 18.0682 -1.82493 -175.129 32.2111 -176.943
lowerback -6.58507 7.32396 13.2455
upperback -4.06915 12.7839 15.7854
thorax -2.13714 7.74962 10.3868
lowerneck -3.05828 -21.1447 -2.50932
upperneck 24.4828 -25.8732 -5.98127
head 7.61708 -12.0244 -3.22944
rclavicle 3.49861e-014 -6.67916e-014
rhumerus 41.3126 46.9519 -76.8399
rradius 34.5856
rwrist -7.42517
rhand 2.29431 -0.47334
rfingers 7.12502
rthumb 27.786 -28.4394
lclavicle 3.49861e-014 -6.67916e-014
lhumerus 14.3299 -15.7608 91.391
lradius 42.6098
lwrist 51.5539
lhand -16.318 42.3875
lfingers 7.12502
lthumb -170.107 -107.865
rfemur 6.92361 -3.74316 8.68549
rtibia 29.5827
rfoot 7.53152 -28.6539
rtoes 14.8287
lfemur -15.3312 -8.19111 -17.5003
ltibia 19.987
lfoot -0.178859 -34.0878
ltoes 18.2911
279
root -6.03776 18.069 -1.88999 -174.832 31.0198 -177.02
lowerback -6.27508 8.48513 16.7539
upperback -4.75168 13.5924 12.882
thorax -1.59715 7.67638 5.42341
lowerneck -3.75662 -21.1099 -0.15658
upperneck 23.9578 -26.5331 -3.87197
head 7.53075 -11.9734 -2.94804
rclavicle -2.70347e-014 1.97194e-013
rhumerus 45.2009 44.7948 -78.3355
rradius 35.4143
rwrist -5.13735
rhand 1.25542 0.757871
rfingers 7.12502
rthumb 26.7923 -27.3645
lclavicle -2.70347e-014 1.97194e-013
lhumerus 17.3396 -16.9781 86.0636
lradius 44.8466
lwrist 51.9681
lhand -17.3183 40.6414
lfingers 7.12502
lthumb -171.072 -109.567
rfemur 7.17777 -3.77078 8.86206
rtibia 29.2062
rfoot 6.88784 -29.6572
rtoes 18.505
lfemur -15.8376 -8.61503 -17.613
ltibia 20.2693
lfoot 0.203567 -34.6974
ltoes 18.9461
